<?xml version="1.0" standalone="no"?><!DOCTYPE svg PUBLIC "-//W3C//DTD SVG 1.1//EN" "http://www.w3.org/Graphics/SVG/1.1/DTD/svg11.dtd"><svg class="icon" style="" viewBox="0 0 1024 1024" version="1.1" xmlns="http://www.w3.org/2000/svg" p-id="2306" xmlns:xlink="http://www.w3.org/1999/xlink" width="200" height="200"><defs><style type="text/css"><![CDATA[

]]></style></defs><path d="M836.7104 192.7168c-87.0144-87.0144-202.7264-134.9376-325.8112-134.9376-123.0848 0-238.8224 47.9488-325.8624 134.9632-87.0144 87.0144-134.9376 202.7264-134.9376 325.8112 0 123.0848 47.9232 238.7968 134.9376 325.8368 87.0144 87.0144 202.7264 134.9376 325.8112 134.9376s238.7968-47.9232 325.8112-134.9376C1016.3456 664.704 1016.3712 372.3776 836.7104 192.7168zM722.7648 703.3856c7.5008 7.5008 7.5008 19.6608 0 27.1616-3.7376 3.7376-8.6528 5.632-13.568 5.632s-9.8304-1.8688-13.568-5.632l-184.832-184.832-184.832 184.832c-3.7376 3.7376-8.6528 5.632-13.568 5.632s-9.8304-1.8688-13.568-5.632c-7.5008-7.5008-7.5008-19.6608 0-27.1616l184.832-184.832-184.832-184.832c-7.5008-7.5008-7.5008-19.6608 0-27.1616s19.6608-7.5008 27.1616 0l184.832 184.832 184.832-184.832c7.5008-7.5008 19.6608-7.5008 27.1616 0s7.5008 19.6608 0 27.1616l-184.832 184.832L722.7648 703.3856z" p-id="2307" fill="#ddd"></path></svg>