<?xml version="1.0" encoding="utf-8"?>
<!-- Generator: Adobe Illustrator 19.0.0, SVG Export Plug-In . SVG Version: 6.00 Build 0)  -->
<svg version="1.1" id="图层_1" xmlns="http://www.w3.org/2000/svg" xmlns:xlink="http://www.w3.org/1999/xlink" x="0px" y="0px"
	 viewBox="0 0 880 100" style="enable-background:new 0 0 880 100;" xml:space="preserve">
<style type="text/css">
	.st0{fill:#584F60;}
	.st1{fill:#B7B4BA;}
	.st2{fill-rule:evenodd;clip-rule:evenodd;fill:#584F60;}
	.st3{fill-rule:evenodd;clip-rule:evenodd;fill:#B7B4BA;}
</style>
<g id="XMLID_2_">
	<path id="XMLID_64_" class="st0" d="M63.4,89.6v-25c0-0.3,0-0.6,0-0.9c0-1.4,0.1-2.7-0.8-3.6c-0.7-0.8-1.9-0.8-2.7-0.8H49.7
		c-0.8,0-1.9,0.1-2.7,0.8c-0.8,0.9-0.8,2.1-0.8,3.6c0,0.3,0,0.6,0,0.9v25H34.2c-5.4,0-8.7-5.1-8.7-9.8V55.2c0-0.6-0.4-1-1-1H20
		c-2.7,0-3.8-1.4-4.3-2.6c-0.2-0.5-1.1-3,2-6.2l30.7-31.9c1.7-1.8,4-2.8,6.5-2.8s4.7,1,6.5,2.8L92,45.4c3.1,3.3,2.2,5.8,2,6.2
		c-0.5,1.2-1.7,2.6-4.3,2.6h-4.5c-0.6,0-1,0.4-1,1v24.6c0,4.7-3.3,9.8-8.7,9.8H63.4z"/>
	<path id="XMLID_61_" class="st0" d="M54.9,11.8c2.2,0,4.2,0.9,5.7,2.5l30.7,31.9c2.7,2.8,2,4.8,1.8,5.1c-0.6,1.3-1.7,2-3.4,2h-4.5
		c-1.1,0-2,0.9-2,2v24.6c0,4.2-2.9,8.8-7.7,8.8h-5.2h-5.9v-3.8V64.6c0-0.3,0-0.6,0-0.9c0-1.6,0.1-3.1-1.1-4.3c-1-1-2.4-1.1-3.4-1.1
		h-5.2h-5.2c-1,0-2.4,0.1-3.4,1.1c-1.1,1.2-1.1,2.7-1.1,4.3c0,0.3,0,0.6,0,0.9v20.2v3.8h-5.9h-5.2c-4.8,0-7.7-4.6-7.7-8.8V55.2
		c0-1.1-0.9-2-2-2H20c-1.7,0-2.8-0.7-3.4-2c-0.2-0.4-0.8-2.3,1.8-5.1l30.7-31.9C50.6,12.6,52.7,11.8,54.9,11.8 M54.9,9.8
		c-2.7,0-5.3,1.1-7.2,3.1L17,44.7c-3.2,3.3-2.8,6.1-2.2,7.3c0.4,0.8,1.6,3.2,5.3,3.2h4.5v24.6c0,5.6,4,10.8,9.7,10.8h5.2h7.9v-5.8
		V64.6c0-2.8-0.4-4.3,2.4-4.3h5.2H60c2.8,0,2.4,1.6,2.4,4.3v20.2v5.8h7.9h5.2c5.7,0,9.7-5.2,9.7-10.8V55.2h4.5
		c3.6,0,4.9-2.3,5.3-3.2c0.5-1.2,0.9-4-2.2-7.3L62,12.8C60.1,10.8,57.6,9.8,54.9,9.8L54.9,9.8z"/>
</g>
<g id="XMLID_4_">
	<path id="XMLID_43_" class="st1" d="M173.4,89.6v-25c0-0.3,0-0.6,0-0.9c0-1.4,0.1-2.7-0.8-3.6c-0.7-0.8-1.9-0.8-2.7-0.8h-10.3
		c-0.8,0-1.9,0.1-2.7,0.8c-0.8,0.9-0.8,2.1-0.8,3.6c0,0.3,0,0.6,0,0.9v25h-12.1c-5.4,0-8.7-5.1-8.7-9.8V55.2c0-0.6-0.4-1-1-1H130
		c-2.7,0-3.8-1.4-4.3-2.6c-0.2-0.5-1.1-3,2-6.2l30.7-31.9c1.7-1.8,4-2.8,6.5-2.8s4.7,1,6.5,2.8l30.7,31.9c3.1,3.3,2.2,5.8,2,6.2
		c-0.5,1.2-1.7,2.6-4.3,2.6h-4.5c-0.6,0-1,0.4-1,1v24.6c0,4.7-3.3,9.8-8.7,9.8H173.4z"/>
	<path id="XMLID_38_" class="st1" d="M164.8,11.8c2.2,0,4.2,0.9,5.7,2.5l30.7,31.9c2.7,2.8,2,4.8,1.8,5.1c-0.6,1.3-1.7,2-3.4,2h-4.5
		c-1.1,0-2,0.9-2,2v24.6c0,4.2-2.9,8.8-7.7,8.8h-5.2h-5.9v-3.8V64.6c0-0.3,0-0.6,0-0.9c0-1.6,0.1-3.1-1.1-4.3c-1-1-2.4-1.1-3.4-1.1
		h-5.2h-5.2c-1,0-2.4,0.1-3.4,1.1c-1.1,1.2-1.1,2.7-1.1,4.3c0,0.3,0,0.6,0,0.9v20.2v3.8h-5.9h-5.2c-4.8,0-7.7-4.6-7.7-8.8V55.2
		c0-1.1-0.9-2-2-2H130c-1.7,0-2.8-0.7-3.4-2c-0.2-0.4-0.8-2.3,1.8-5.1L159,14.2C160.6,12.6,162.6,11.8,164.8,11.8 M164.8,9.8
		c-2.7,0-5.3,1.1-7.2,3.1l-30.7,31.9c-3.2,3.3-2.8,6.1-2.2,7.3c0.4,0.8,1.6,3.2,5.3,3.2h4.5v24.6c0,5.6,4,10.8,9.7,10.8h5.2h7.9
		v-5.8V64.6c0-2.8-0.4-4.3,2.4-4.3h5.2h5.2c2.8,0,2.4,1.6,2.4,4.3v20.2v5.8h7.9h5.2c5.7,0,9.7-5.2,9.7-10.8V55.2h4.5
		c3.6,0,4.9-2.3,5.3-3.2c0.5-1.2,0.9-4-2.2-7.3L172,12.8C170.1,10.8,167.5,9.8,164.8,9.8L164.8,9.8z"/>
</g>
<path id="XMLID_5_" class="st2" d="M295.5,13.4c-13.1-7.6-29.3-7.6-42.4,0C240,21,231.9,35,231.9,50.2s8.1,29.2,21.2,36.7
	c13.1,7.6,29.3,7.6,42.4,0c13.1-7.6,21.2-21.6,21.2-36.7S308.7,21,295.5,13.4z M291.6,52.9l-24.8,14.3c-2.1,1.2-4.7-0.3-4.7-2.7
	V35.9c0-2.4,2.6-3.9,4.7-2.7l24.8,14.3C293.6,48.7,293.6,51.7,291.6,52.9z"/>
<path id="XMLID_13_" class="st3" d="M406.1,13.4c-13.1-7.6-29.3-7.6-42.4,0C350.5,21,342.4,35,342.4,50.2s8.1,29.2,21.2,36.7
	c13.1,7.6,29.3,7.6,42.4,0c13.1-7.6,21.2-21.6,21.2-36.7S419.2,21,406.1,13.4z M402.1,52.9l-24.8,14.3c-2.1,1.2-4.7-0.3-4.7-2.7
	V35.9c0-2.4,2.6-3.9,4.7-2.7l24.8,14.3C404.2,48.7,404.2,51.7,402.1,52.9z"/>
<g id="XMLID_21_">
	<path id="XMLID_24_" class="st2" d="M490.1,7.9c-9.5,0.9-18.8,5-26,12.2c-7.3,7.3-11.4,16.5-12.2,26.1c10.4,1.2,21.5,6.5,30.6,15.6
		c9.1,9.1,14.4,20.2,15.6,30.6c9.5-0.9,18.8-5,26.1-12.2c7.3-7.3,11.4-16.5,12.2-26c-10.4-1.2-21.5-6.5-30.6-15.6
		C496.7,29.4,491.3,18.3,490.1,7.9L490.1,7.9z"/>
	<path id="XMLID_23_" class="st2" d="M536.5,48.9c-0.3-10.4-4.4-20.8-12.4-28.7c-8-8-18.3-12.1-28.7-12.4c1.2,9.1,6,18.9,14.1,27
		C517.6,42.9,527.4,47.7,536.5,48.9L536.5,48.9z"/>
	<path id="XMLID_22_" class="st2" d="M451.7,51.5c0.3,10.4,4.4,20.8,12.4,28.7c8,8,18.3,12.1,28.7,12.4c-1.2-9.1-6-18.9-14.1-27
		C470.6,57.5,460.8,52.7,451.7,51.5L451.7,51.5z"/>
</g>
<g id="XMLID_26_">
	<path id="XMLID_30_" class="st3" d="M601,7.9c-9.5,0.9-18.8,5-26,12.2c-7.3,7.3-11.4,16.5-12.2,26.1c10.4,1.2,21.5,6.5,30.6,15.6
		c9.1,9.1,14.4,20.2,15.6,30.6c9.5-0.9,18.8-5,26.1-12.2c7.3-7.3,11.4-16.5,12.2-26c-10.4-1.2-21.5-6.5-30.6-15.6
		C607.5,29.4,602.2,18.3,601,7.9L601,7.9z"/>
	<path id="XMLID_29_" class="st3" d="M647.4,48.9c-0.3-10.4-4.4-20.8-12.4-28.7c-8-8-18.3-12.1-28.7-12.4c1.2,9.1,6,18.9,14.1,27
		C628.5,42.9,638.3,47.7,647.4,48.9L647.4,48.9z"/>
	<path id="XMLID_28_" class="st3" d="M562.5,51.5c0.3,10.4,4.4,20.8,12.4,28.7c8,8,18.3,12.1,28.7,12.4c-1.2-9.1-6-18.9-14.1-27
		C581.4,57.5,571.6,52.7,562.5,51.5L562.5,51.5z"/>
</g>
<g id="XMLID_36_">
	<path id="XMLID_37_" class="st2" d="M756.2,82.3v10H672v-10l28.1-18v-7c-1.7,0-3.3-1.7-4.8-5.2c-1.5-3.5-2.2-6.4-2.2-8.8v-14
		c0-5.8,2.1-10.8,6.2-14.9c4.1-4.1,9.1-6.2,14.9-6.2c5.8,0,10.8,2.1,14.9,6.2s6.2,9.1,6.2,14.9v14c0,2.4-0.7,5.3-2.2,8.8
		c-1.5,3.5-3.1,5.2-4.8,5.2v7L756.2,82.3L756.2,82.3z"/>
</g>
<g id="XMLID_39_">
	<path id="XMLID_40_" class="st3" d="M867,82.3v10h-84.2v-10l28.1-18v-7c-1.7,0-3.3-1.7-4.8-5.2c-1.5-3.5-2.2-6.4-2.2-8.8v-14
		c0-5.8,2.1-10.8,6.2-14.9c4.1-4.1,9.1-6.2,14.9-6.2c5.8,0,10.8,2.1,14.9,6.2s6.2,9.1,6.2,14.9v14c0,2.4-0.7,5.3-2.2,8.8
		c-1.5,3.5-3.1,5.2-4.8,5.2v7L867,82.3L867,82.3z"/>
</g>
</svg>
