<?xml version="1.0" encoding="utf-8"?>
<!-- Generator: Adobe Illustrator 19.0.0, SVG Export Plug-In . SVG Version: 6.00 Build 0)  -->
<svg version="1.1" id="图层_1" xmlns="http://www.w3.org/2000/svg" xmlns:xlink="http://www.w3.org/1999/xlink" x="0px" y="0px"
	 viewBox="0 0 880 100" style="enable-background:new 0 0 880 100;" xml:space="preserve">
<style type="text/css">
	.st0{fill:#666666;}
	.st1{fill-rule:evenodd;clip-rule:evenodd;fill:#666666;}
	.st2{fill-rule:evenodd;clip-rule:evenodd;fill:#24C789;}
	.st3{fill-rule:evenodd;clip-rule:evenodd;fill:#FFFFFF;}
	.st4{clip-path:url(#XMLID_113_);}
	
		.st5{clip-path:url(#XMLID_114_);fill-rule:evenodd;clip-rule:evenodd;fill:#FFFFFF;stroke:#FFFFFF;stroke-linecap:round;stroke-linejoin:round;stroke-miterlimit:10;}
	.st6{clip-path:url(#XMLID_115_);}
	
		.st7{clip-path:url(#XMLID_116_);fill-rule:evenodd;clip-rule:evenodd;fill:#666666;stroke:#666666;stroke-linecap:round;stroke-linejoin:round;stroke-miterlimit:10;}
</style>
<g id="XMLID_4_">
	<path id="XMLID_16_" class="st0" d="M164.2,10.7c21.8,0,39.6,17.8,39.6,39.6S186,89.9,164.2,89.9c-21.8,0-39.6-17.8-39.6-39.6
		S142.4,10.7,164.2,10.7 M164.2,7.7c-23.5,0-42.6,19.1-42.6,42.6c0,23.5,19.1,42.6,42.6,42.6c23.5,0,42.6-19.1,42.6-42.6
		C206.8,26.7,187.7,7.7,164.2,7.7L164.2,7.7z"/>
</g>
<path id="XMLID_3_" class="st1" d="M164.1,35.1c9.5,0,16.8,7.6,16.6,17.1c-0.1,1.7-0.5,2.4-2.4,2.3c-3.4-0.1-4.1,0.7-4.5,4.2
	c-0.3,2.6-0.5,5.1-1,7.7c-0.3,1.8,0.4,2.7,1.9,3.3c3,1.4,5.9,0.9,8.3-1.2c2.4-2.1,3.5-4.9,2.5-8c-0.9-2.6-1-5.2-1-7.8
	c0-1.8-0.2-3.5-0.5-5.2c-1.7-9.3-10.4-16.4-20-16.3c-9.5,0.1-18,7.2-19.7,16.4c-0.9,4.7-0.2,9.6-1.6,14.4c-0.8,2.6,0.8,5.3,3.3,7
	c2.5,1.7,5.2,2,8,0.6c1.2-0.6,1.9-1.4,1.7-2.9c-0.4-2.7-0.7-5.4-1-8.1c-0.4-3.4-1.1-4.2-4.6-4.1c-1.8,0-2.2-0.6-2.3-2.2
	C147.4,42.8,154.7,35.1,164.1,35.1L164.1,35.1z"/>
<g id="XMLID_2_">
	<path id="XMLID_83_" class="st2" d="M54.9,7.7c23.5,0,42.6,19.1,42.6,42.6c0,23.5-19.1,42.6-42.6,42.6c-23.5,0-42.6-19.1-42.6-42.6
		C12.3,26.7,31.4,7.7,54.9,7.7L54.9,7.7z M54.9,34.1c9.5,0,16.8,7.6,16.6,17.1c-0.1,1.7-0.5,2.4-2.4,2.3c-3.4-0.1-4.1,0.7-4.5,4.2
		c-0.3,2.6-0.5,5.1-1,7.7c-0.3,1.8,0.4,2.7,1.9,3.3c3,1.4,5.9,0.9,8.3-1.2c2.4-2.1,3.5-4.9,2.5-8c-0.9-2.6-1-5.2-1-7.8
		c0-1.8-0.2-3.5-0.5-5.2c-1.7-9.3-10.4-16.4-20-16.3c-9.5,0.1-18,7.2-19.7,16.4c-0.9,4.7-0.2,9.6-1.6,14.4c-0.8,2.6,0.8,5.3,3.3,7
		c2.5,1.7,5.2,2,8,0.6c1.2-0.6,1.9-1.4,1.7-2.9c-0.4-2.7-0.7-5.4-1-8.1c-0.4-3.4-1.1-4.2-4.6-4.1c-1.8,0-2.2-0.6-2.3-2.2
		C38.1,41.8,45.4,34.1,54.9,34.1L54.9,34.1z"/>
</g>
<g id="XMLID_14_">
	<path id="XMLID_70_" class="st2" d="M274.1,6.7L274.1,6.7L274.1,6.7L274.1,6.7c24.3,0,44.1,18.4,44.1,41c0,22.6-19.7,41-44.1,41
		c-2.8,0-5.6-0.3-8.2-0.7l-13.6,4.9c-1.6,0.6-3.3-0.5-3.6-2.2l-2.1-11c-10.1-7.5-16.5-19-16.5-32C230.1,25,249.8,6.7,274.1,6.7
		L274.1,6.7z M288.9,62.3L288.9,62.3L288.9,62.3c1.5,0,2.8-1.3,2.8-2.9c0-1.6-1.2-2.9-2.8-2.9h-27.5c-1.5,0-2.8,1.3-2.8,2.9
		c0,1.6,1.2,2.9,2.8,2.9H288.9L288.9,62.3z M294.4,44.7L294.4,44.7L294.4,44.7c1.5,0,2.8-1.3,2.8-2.9c0-1.6-1.2-2.9-2.8-2.9h-38.6
		c-1.5,0-2.8,1.3-2.8,2.9c0,1.6,1.2,2.9,2.8,2.9H294.4L294.4,44.7z"/>
</g>
<g id="XMLID_8_">
	<g id="XMLID_30_">
		<path id="XMLID_47_" class="st0" d="M384.8,9.7L384.8,9.7c11,0,21.4,4,29.1,11.2c7.7,7.2,12,16.7,12,26.8c0,21-18.4,38-41.1,38
			c-2.5,0-5.1-0.2-7.7-0.7c-0.2,0-0.3,0-0.5,0c-0.3,0-0.7,0.1-1,0.2l-13.2,4.8l-2.1-10.8c-0.1-0.7-0.6-1.4-1.2-1.8
			c-9.7-7.3-15.3-18-15.3-29.6C343.8,26.7,362.2,9.7,384.8,9.7 M384.8,6.7L384.8,6.7L384.8,6.7z M384.8,6.7
			c-24.3,0-44.1,18.4-44.1,41c0,12.9,6.5,24.5,16.5,32l2.1,11c0.3,1.4,1.4,2.4,2.7,2.4c0.3,0,0.6-0.1,0.9-0.2l13.6-4.9
			c2.7,0.5,5.4,0.7,8.2,0.7c24.3,0,44.1-18.4,44.1-41C428.9,25,409.2,6.7,384.8,6.7L384.8,6.7L384.8,6.7z"/>
	</g>
	<g id="XMLID_22_">
		<path id="XMLID_46_" class="st1" d="M399.6,62.3h-27.5c-1.5,0-2.8-1.3-2.8-2.9c0-1.6,1.2-2.9,2.8-2.9h27.5c1.5,0,2.8,1.3,2.8,2.9
			C402.4,61,401.1,62.3,399.6,62.3L399.6,62.3L399.6,62.3L399.6,62.3z"/>
	</g>
	<g id="XMLID_19_">
		<path id="XMLID_44_" class="st1" d="M405.1,44.7h-38.6c-1.5,0-2.8-1.3-2.8-2.9c0-1.6,1.2-2.9,2.8-2.9h38.6c1.5,0,2.8,1.3,2.8,2.9
			C407.9,43.4,406.6,44.7,405.1,44.7L405.1,44.7L405.1,44.7L405.1,44.7z"/>
	</g>
</g>
<g id="XMLID_45_">
	<path id="XMLID_61_" class="st2" d="M494.6,7.9C471.1,7.9,452,27,452,50.5c0,23.5,19.1,42.6,42.6,42.6c23.5,0,42.6-19.1,42.6-42.6
		C537.2,27,518.2,7.9,494.6,7.9L494.6,7.9z"/>
</g>
<g id="XMLID_21_">
	<path id="XMLID_43_" class="st3" d="M510.1,28.9h-17.5c-0.9,0-1.6,0.7-1.6,1.6c0,0.9,0.7,1.6,1.6,1.6h17.5c0.3,0,0.5,0.2,0.5,0.5
		v25c0,0.9,0.7,1.6,1.6,1.6c0.9,0,1.6-0.7,1.6-1.6v-25C513.8,30.6,512.1,28.9,510.1,28.9L510.1,28.9z"/>
	<path id="XMLID_35_" class="st3" d="M505.1,34h-25.9c-2,0-3.7,1.6-3.7,3.7v30.7c0,2,1.7,3.7,3.7,3.7h20.1c0.4,0,0.9-0.2,1.2-0.5
		l8-9c0.3-0.3,0.4-0.7,0.4-1V37.7C508.8,35.6,507.2,34,505.1,34L505.1,34z M478.6,68.4V37.7c0-0.3,0.3-0.6,0.6-0.6h25.9
		c0.3,0,0.6,0.3,0.6,0.6v21.1h-5.5c-1.9,0-3.5,1.6-3.5,3.7V69h-17.5C478.9,69,478.6,68.7,478.6,68.4L478.6,68.4z M499.8,67.6v-5.1
		c0-0.3,0.2-0.6,0.4-0.6h4.6L499.8,67.6L499.8,67.6z"/>
	<path id="XMLID_28_" class="st3" d="M484.1,45.4h15.2c0.9,0,1.6-0.7,1.6-1.6c0-0.9-0.7-1.6-1.6-1.6h-15.2c-0.9,0-1.6,0.7-1.6,1.6
		C482.5,44.7,483.2,45.4,484.1,45.4L484.1,45.4z"/>
	<path id="XMLID_27_" class="st3" d="M484.1,52h15.2c0.9,0,1.6-0.7,1.6-1.6c0-0.9-0.7-1.6-1.6-1.6h-15.2c-0.9,0-1.6,0.7-1.6,1.6
		C482.5,51.4,483.2,52,484.1,52L484.1,52z"/>
	<path id="XMLID_25_" class="st3" d="M492.5,54.8h-8.4c-0.9,0-1.6,0.7-1.6,1.6c0,0.9,0.7,1.6,1.6,1.6h8.4c0.9,0,1.6-0.7,1.6-1.6
		C494,55.5,493.3,54.8,492.5,54.8L492.5,54.8z"/>
</g>
<g id="XMLID_60_">
	<path id="XMLID_78_" class="st0" d="M604.5,10.9c21.8,0,39.6,17.8,39.6,39.6s-17.8,39.6-39.6,39.6c-21.8,0-39.6-17.8-39.6-39.6
		S582.6,10.9,604.5,10.9 M604.5,7.9c-23.5,0-42.6,19.1-42.6,42.6c0,23.5,19.1,42.6,42.6,42.6c23.5,0,42.6-19.1,42.6-42.6
		C647.1,27,628,7.9,604.5,7.9L604.5,7.9z"/>
</g>
<g id="XMLID_23_">
	<path id="XMLID_57_" class="st1" d="M622,28.9h-17.5c-0.9,0-1.6,0.7-1.6,1.6c0,0.9,0.7,1.6,1.6,1.6H622c0.3,0,0.5,0.2,0.5,0.5v25
		c0,0.9,0.7,1.6,1.6,1.6c0.9,0,1.6-0.7,1.6-1.6v-25C625.6,30.6,624,28.9,622,28.9L622,28.9z"/>
	<path id="XMLID_52_" class="st1" d="M617,34H591c-2,0-3.7,1.6-3.7,3.7v30.7c0,2,1.7,3.7,3.7,3.7h20.1c0.4,0,0.9-0.2,1.2-0.5l8-9
		c0.3-0.3,0.4-0.7,0.4-1V37.7C620.6,35.6,619,34,617,34L617,34z M590.4,68.4V37.7c0-0.3,0.3-0.6,0.6-0.6H617c0.3,0,0.6,0.3,0.6,0.6
		v21.1h-5.5c-1.9,0-3.5,1.6-3.5,3.7V69H591C590.7,69,590.4,68.7,590.4,68.4L590.4,68.4z M611.7,67.6v-5.1c0-0.3,0.2-0.6,0.4-0.6h4.6
		L611.7,67.6L611.7,67.6z"/>
	<path id="XMLID_41_" class="st1" d="M595.9,45.4h15.2c0.9,0,1.6-0.7,1.6-1.6c0-0.9-0.7-1.6-1.6-1.6h-15.2c-0.9,0-1.6,0.7-1.6,1.6
		C594.3,44.7,595,45.4,595.9,45.4L595.9,45.4z"/>
	<path id="XMLID_31_" class="st1" d="M595.9,52h15.2c0.9,0,1.6-0.7,1.6-1.6c0-0.9-0.7-1.6-1.6-1.6h-15.2c-0.9,0-1.6,0.7-1.6,1.6
		C594.3,51.4,595,52,595.9,52L595.9,52z"/>
	<path id="XMLID_29_" class="st1" d="M604.3,54.8h-8.4c-0.9,0-1.6,0.7-1.6,1.6c0,0.9,0.7,1.6,1.6,1.6h8.4c0.9,0,1.6-0.7,1.6-1.6
		C605.9,55.5,605.2,54.8,604.3,54.8L604.3,54.8z"/>
</g>
<g id="XMLID_20_">
	<g id="XMLID_97_">
		<path id="XMLID_105_" class="st2" d="M714.4,7.2c-23.5,0-42.6,19.1-42.6,42.6c0,23.5,19.1,42.6,42.6,42.6
			c23.5,0,42.6-19.1,42.6-42.6C757,26.3,737.9,7.2,714.4,7.2L714.4,7.2z"/>
	</g>
	<g id="XMLID_66_">
		<defs>
			<path id="XMLID_75_" d="M714.4,48.4c-6.5,0-11.9-5.3-11.9-11.9c0-6.5,5.3-11.9,11.9-11.9s11.9,5.3,11.9,11.9
				C726.2,43.1,720.9,48.4,714.4,48.4L714.4,48.4z M714.4,26.5c-5.5,0-10,4.5-10,10c0,5.5,4.5,10,10,10s10-4.5,10-10
				C724.4,31,719.9,26.5,714.4,26.5L714.4,26.5z"/>
		</defs>
		<defs>
			<path id="XMLID_69_" d="M743,79.5h-1.8c0-14.8-12-26.8-26.8-26.8c-14.8,0-26.8,12-26.8,26.8h-1.8c0-15.8,12.9-28.6,28.6-28.6
				S743,63.7,743,79.5L743,79.5z"/>
		</defs>
		<use xlink:href="#XMLID_75_"  style="overflow:visible;fill-rule:evenodd;clip-rule:evenodd;fill:#FFFFFF;"/>
		<use xlink:href="#XMLID_69_"  style="overflow:visible;fill-rule:evenodd;clip-rule:evenodd;fill:#FFFFFF;"/>
		<clipPath id="XMLID_113_">
			<use xlink:href="#XMLID_75_"  style="overflow:visible;"/>
		</clipPath>
		<clipPath id="XMLID_114_" class="st4">
			<use xlink:href="#XMLID_69_"  style="overflow:visible;"/>
		</clipPath>
		<path id="XMLID_86_" class="st5" d="M714.4,1c-24.9,0-45.2,20.2-45.2,45.2c0,24.9,20.2,45.2,45.2,45.2c24.9,0,45.2-20.2,45.2-45.2
			C759.5,21.2,739.3,1,714.4,1L714.4,1z"/>
		
			<use xlink:href="#XMLID_75_"  style="overflow:visible;fill-rule:evenodd;clip-rule:evenodd;fill:none;stroke:#FFFFFF;stroke-linecap:round;stroke-linejoin:round;stroke-miterlimit:10;"/>
		
			<use xlink:href="#XMLID_69_"  style="overflow:visible;fill-rule:evenodd;clip-rule:evenodd;fill:none;stroke:#FFFFFF;stroke-linecap:round;stroke-linejoin:round;stroke-miterlimit:10;"/>
	</g>
</g>
<g id="XMLID_93_">
	<path id="XMLID_107_" class="st0" d="M824.8,10.2c21.8,0,39.6,17.8,39.6,39.6s-17.8,39.6-39.6,39.6c-21.8,0-39.6-17.8-39.6-39.6
		S802.9,10.2,824.8,10.2 M824.8,7.2c-23.5,0-42.6,19.1-42.6,42.6c0,23.5,19.1,42.6,42.6,42.6c23.5,0,42.6-19.1,42.6-42.6
		C867.4,26.3,848.3,7.2,824.8,7.2L824.8,7.2z"/>
</g>
<g id="XMLID_76_">
	<defs>
		<path id="XMLID_88_" d="M824.8,48.4c-6.5,0-11.9-5.3-11.9-11.9c0-6.5,5.3-11.9,11.9-11.9s11.9,5.3,11.9,11.9
			C836.6,43.1,831.3,48.4,824.8,48.4L824.8,48.4z M824.8,26.5c-5.5,0-10,4.5-10,10c0,5.5,4.5,10,10,10s10-4.5,10-10
			C834.8,31,830.3,26.5,824.8,26.5L824.8,26.5z"/>
	</defs>
	<defs>
		<path id="XMLID_87_" d="M853.4,79.5h-1.8c0-14.8-12-26.8-26.8-26.8c-14.8,0-26.8,12-26.8,26.8h-1.8c0-15.8,12.9-28.6,28.6-28.6
			S853.4,63.7,853.4,79.5L853.4,79.5z"/>
	</defs>
	<use xlink:href="#XMLID_88_"  style="overflow:visible;fill-rule:evenodd;clip-rule:evenodd;fill:#666666;"/>
	<use xlink:href="#XMLID_87_"  style="overflow:visible;fill-rule:evenodd;clip-rule:evenodd;fill:#666666;"/>
	<clipPath id="XMLID_115_">
		<use xlink:href="#XMLID_88_"  style="overflow:visible;"/>
	</clipPath>
	<clipPath id="XMLID_116_" class="st6">
		<use xlink:href="#XMLID_87_"  style="overflow:visible;"/>
	</clipPath>
	<path id="XMLID_92_" class="st7" d="M824.8,1c-24.9,0-45.2,20.2-45.2,45.2c0,24.9,20.2,45.2,45.2,45.2c24.9,0,45.2-20.2,45.2-45.2
		C869.9,21.2,849.7,1,824.8,1L824.8,1z"/>
	
		<use xlink:href="#XMLID_88_"  style="overflow:visible;fill-rule:evenodd;clip-rule:evenodd;fill:none;stroke:#666666;stroke-linecap:round;stroke-linejoin:round;stroke-miterlimit:10;"/>
	
		<use xlink:href="#XMLID_87_"  style="overflow:visible;fill-rule:evenodd;clip-rule:evenodd;fill:none;stroke:#666666;stroke-linecap:round;stroke-linejoin:round;stroke-miterlimit:10;"/>
</g>
</svg>
